<svg xmlns="http://www.w3.org/2000/svg" width="181" height="60" viewBox="0 0 181 60">
  <rect width="181" height="60" fill="#fff"/>
  <g transform="translate(9 4)">
    <path d="M657.114,239.892h-7.888V247.3h-3.133v6.506h3.133v16.742a7.857,7.857,0,0,0,2.531,6.2c2.289,1.985,5.662,2.832,9.636,2.587h1.142v-5.721h-1.142c-3.678-.239-4.279-.841-4.279-3.068V253.806h5.42V247.3h-5.42Z" transform="translate(-646.093 -232.817)" fill-rule="evenodd"/>
    <path d="M683.378,244.954s-6.239,15.824-7.661,19.532c-1.423-3.708-8.158-19.532-8.158-19.532h-8.785l12.982,31.4h6.8l11.866-31.4Z" transform="translate(-640.07 -230.413)" fill-rule="evenodd"/>
    <path d="M701.2,268.6c-2.3.934-4.279,2.094-6.875,1.85-3.953,0-6.239-4.757-6.239-9.391,0-4.817,1.976-9.82,5.688-10.192a16.087,16.087,0,0,1,6.543,1.792l.919.457,2.8-5.516-.634-.378c-5.678-3.4-12.228-3.648-16.737-.62-4.263,2.9-6.794,8.524-6.794,14.456,0,7.97,4.813,15.94,13.032,16.184a21,21,0,0,0,11.612-3.426l1.016-.59-2.684-5.313Z" transform="translate(-630.049 -230.631)" fill-rule="evenodd"/>
    <path d="M752.663,244.5a14.015,14.015,0,0,0-9.851,3.919,16.171,16.171,0,0,0-4.773,11.867c0,8.444,4.468,16.586,14.316,16.948a13.967,13.967,0,0,0,9.853-3.976,19.3,19.3,0,0,0,4.773-12.972C766.98,252.7,761.964,244.5,752.663,244.5Zm-.155,26.019c-5.674-.263-6.519-6.232-6.538-9.614.02-6.417,2.285-9.422,6.538-9.687,5.674.262,6.526,6.234,6.543,9.611C759.033,267.25,756.763,270.258,752.508,270.52Z" transform="translate(-602.426 -230.628)" fill-rule="evenodd"/>
    <path d="M732.336,248.986a15.483,15.483,0,0,0-6.721,1.509v-15.4H717.7v40.491l.145.236c.038.06,3.795,5.575,14.431,5.929a10.574,10.574,0,0,0,7.83-3.053c3.122-3,5.012-8.208,5.06-13.935C745.164,257.1,741.2,249.264,732.336,248.986Zm-.72,26.28a10.256,10.256,0,0,1-6-1.463V257.192a11.171,11.171,0,0,1,5.578-1.466c3.813.229,5.478,3.112,5.478,9.354C736.671,266.742,736.431,275.068,731.617,275.266Z" transform="translate(-612.086 -235.095)" fill-rule="evenodd"/>
    <path d="M712.554,244.47a21.92,21.92,0,0,0-11.085,2.849l-.887.569,2.6,5.7.826-.317c3.419-1.708,5.127-2.282,7.409-2.282,1.968,0,4.243,1.457,4.243,3.673v1.145h-5.95c-6.528,0-11.343,4.305-11.343,10.513a10.772,10.772,0,0,0,10.768,10.832,18.5,18.5,0,0,0,14.19-5.381l.32-.32v-17.04C723.641,247.889,717.939,244.47,712.554,244.47Zm3.1,24.7a6.907,6.907,0,0,1-4.243,1.708,4.913,4.913,0,0,1-4.811-4.813c0-2.279,1.709-3.99,4.5-3.99h4.557Z" transform="translate(-621.269 -230.643)" fill-rule="evenodd"/>
  </g>
</svg>
